<?xml version="1.0" encoding="UTF-8"?>
<svg id="Layer_2" data-name="Layer 2" xmlns="http://www.w3.org/2000/svg" viewBox="0 0 42.28 65.14">
  <defs>
    <style>
      .cls-1 {
        fill: #6ec285;
      }
    </style>
  </defs>
  <g id="Layer_17" data-name="Layer 17">
    <g>
      <path class="cls-1" d="M42.28,25.68c0-3.24-2.65-5.89-5.89-5.89h-.75c-3.24,0-5.89,2.65-5.89,5.89v7.11s-9.02,1.63-17.21-3.58v-12.12c0-3.24-2.65-5.89-5.89-5.89h-.75c-3.24,0-5.89,2.65-5.89,5.89v35.32c0,.16.03.3.05.45h-.02s.02.14.06.35c.08.59.24,1.16.49,1.68,1.34,3.51,5.91,10.32,21.14,10.24,20.5-.11,20.56-12.53,20.56-12.53h-.04c0-.12.04-.23.04-.36v-26.57ZM29.75,44.86v1.6c.27,6.42-5.57,5.73-8.03,5.66-9.04-.25-9.16-3.81-9.18-6.64-.01-.99,0-3.95,0-3.95,1.72,1.15,7.83,4.64,17.21,3.33Z"/>
      <path class="cls-1" d="M39.79,11.26c2.75-2.08,3.31-6.02,1.23-8.78-2.08-2.75-6.02-3.31-8.78-1.23-2.75,2.08-3.31,6.02-1.23,8.78s6.02,3.31,8.78,1.23Z"/>
    </g>
  </g>
</svg>