<svg width="72" height="51" viewBox="0 0 72 51" fill="none" xmlns="http://www.w3.org/2000/svg">
<rect width="72" height="51" fill="#1F1F1F"/>
<path d="M46.922 5.69843C46.5764 5.41184 46.1711 5.20602 45.7359 5.09597C45.3006 4.98592 44.8463 4.97442 44.406 5.06231L40.284 6.06249C39.3624 6.23021 38.5288 6.71614 37.9287 7.43557C37.3285 8.155 36.9999 9.06228 37 9.99923V24.802L36 24.983L35 24.802V9.99923C35.0037 9.07155 34.6832 8.17174 34.094 7.4553C33.5047 6.73887 32.6838 6.25081 31.773 6.0755L27.536 5.0473C27.1038 4.9688 26.6596 4.9862 26.2348 5.09827C25.81 5.21034 25.4151 5.41435 25.0778 5.69588C24.7405 5.97741 24.4692 6.32959 24.2829 6.72753C24.0967 7.12548 24.0001 7.55947 24 7.99886V24.836L36 27.0194L48 24.836V7.99886C48 7.5598 47.9035 7.1261 47.7172 6.72854C47.5309 6.33098 47.2594 5.9793 46.922 5.69843Z" fill="#64765D"/>
<text fill="#64765D" xml:space="preserve" style="white-space: pre" font-family="Manrope" font-size="11" font-weight="500" letter-spacing="0.04em"><tspan x="2.34645" y="47.713">RESOURCES</tspan></text>
</svg>
